<svg xmlns="http://www.w3.org/2000/svg" viewBox="0 0 64 64" role="img" aria-label="TOJI ornamental crest">
  <rect width="64" height="64" fill="#050303"/>
  <rect x="3" y="3" width="58" height="58" fill="none" stroke="#471013" stroke-width="2"/>
  <path
    fill="#9b2228"
    d="M32 6 37 14l-3 6v23l7 8-9 7-9-7 7-8V20l-3-6 5-8Z"
  />
  <path
    d="M29 18c-5.5-6.2-13.6-5.4-18 1.8 5.6-2.6 10.1.2 9.2 5.2-.8 4.6-5.8 5.8-8.9 2.5 1.4 7.4 10.3 9.6 17.2 2.1M35 18c5.5-6.2 13.6-5.4 18 1.8-5.6-2.6-10.1.2-9.2 5.2.8 4.6 5.8 5.8 8.9 2.5-1.4 7.4-10.3 9.6-17.2 2.1"
    fill="none"
    stroke="#a92a30"
    stroke-width="3.2"
    stroke-linecap="square"
  />
  <path fill="#c13a3f" d="m32 10 2.2 4L32 18l-2.2-4L32 10Zm0 35 3.8 6-3.8 3-3.8-3 3.8-6Z"/>
</svg>
